/* XPM */
static char *_64d8711f0aa418c9d5777226b15f90f[] = {
/* columns rows colors chars-per-pixel */
"64 64 168 2 ",
"   c #4E89BF",
".  c #4F8ABF",
"X  c #548DC1",
"o  c #558EC1",
"O  c #568EC1",
"+  c #578FC2",
"@  c #588FC2",
"#  c #5890C2",
"$  c #5990C2",
"%  c #5990C3",
"&  c #5991C3",
"*  c #5A91C3",
"=  c #5B91C3",
"-  c #5B92C3",
";  c #5C92C3",
":  c #5B92C4",
">  c #5C92C4",
",  c #5C93C4",
"<  c #5D93C4",
"1  c #5E93C4",
"2  c #5E94C4",
"3  c #5F95C5",
"4  c #6095C5",
"5  c #6195C5",
"6  c #6096C5",
"7  c #6196C5",
"8  c #6196C6",
"9  c #6296C6",
"0  c #6297C6",
"q  c #6397C6",
"w  c #6397C7",
"e  c #6497C6",
"r  c #6497C7",
"t  c #6398C6",
"y  c #6398C7",
"u  c #6498C6",
"i  c #6498C7",
"p  c #6598C7",
"a  c #6599C7",
"s  c #6699C7",
"d  c #6799C7",
"f  c #679AC7",
"g  c #6699C8",
"h  c #679AC8",
"j  c #689AC8",
"k  c #689BC8",
"l  c #699BC8",
"z  c #6A9BC8",
"x  c #6A9BC9",
"c  c #6A9CC9",
"v  c #6B9CC9",
"b  c #6D9DCA",
"n  c #6F9FCA",
"m  c #6F9FCB",
"M  c #74A2CC",
"N  c #7BA7CF",
"B  c #7CA8CF",
"V  c #7DA9D0",
"C  c #7EA9D0",
"Z  c #7FAAD0",
"A  c #81ABD1",
"S  c #82ACD1",
"D  c #85AED3",
"F  c #87AFD3",
"G  c #88B0D4",
"H  c #8CB2D5",
"J  c #8DB3D5",
"K  c #8FB4D6",
"L  c #91B6D7",
"P  c #92B6D7",
"I  c #93B7D7",
"U  c #95B9D8",
"Y  c #97B9D9",
"T  c #99BBD9",
"R  c #9BBCDA",
"E  c #9CBDDB",
"W  c #9EBEDB",
"Q  c #A0BFDC",
"!  c #A1C0DC",
"~  c #A1C1DD",
"^  c #A2C1DD",
"/  c #A3C2DD",
"(  c #A4C2DD",
")  c #A4C2DE",
"_  c #A5C3DE",
"`  c #A6C4DE",
"'  c #A7C4DF",
"]  c #A9C6DF",
"[  c #AAC6E0",
"{  c #ABC7E0",
"}  c #ACC8E1",
"|  c #ADC8E1",
" . c #AEC9E1",
".. c #AFCAE1",
"X. c #AFCAE2",
"o. c #B0CAE2",
"O. c #B1CBE2",
"+. c #B3CCE3",
"@. c #B4CDE4",
"#. c #B5CDE4",
"$. c #B6CEE4",
"%. c #B7CEE4",
"&. c #B7CFE4",
"*. c #B9D0E5",
"=. c #BAD0E5",
"-. c #BAD1E5",
";. c #BBD1E5",
":. c #BAD1E6",
">. c #BBD1E6",
",. c #BBD2E6",
"<. c #BCD2E6",
"1. c #BDD3E7",
"2. c #BED3E7",
"3. c #BFD4E7",
"4. c #C0D5E8",
"5. c #C3D7E9",
"6. c #C4D7E9",
"7. c #C5D8E9",
"8. c #C6D9EA",
"9. c #C7DAEA",
"0. c #C8DAEB",
"q. c #C9DBEB",
"w. c #CADCEB",
"e. c #CCDDEC",
"r. c #CEDEED",
"t. c #CFDFED",
"y. c #D1E0EE",
"u. c #D2E1EE",
"i. c #D4E2EF",
"p. c #D5E3EF",
"a. c #D6E3EF",
"s. c #D6E3F0",
"d. c #D6E4F0",
"f. c #D7E4F0",
"g. c #DAE6F1",
"h. c #DCE7F2",
"j. c #DDE8F2",
"k. c #DEE9F3",
"l. c #DFE9F3",
"z. c #DFEAF3",
"x. c #E1EBF4",
"c. c #E2EBF4",
"v. c #E4EDF5",
"b. c #E6EEF5",
"n. c #E6EEF6",
"m. c #E8EFF6",
"M. c #EAF1F7",
"N. c #EDF2F8",
"B. c #EEF4F9",
"V. c #EFF4F9",
"C. c #F0F5F9",
"Z. c #F1F5FA",
"A. c #F2F6FA",
"S. c #F3F7FA",
"D. c #F5F8FB",
"F. c #F9FBFC",
"G. c #F9FBFD",
"H. c #FAFBFD",
"J. c #FAFCFD",
"K. c #FBFCFD",
"L. c #FBFDFD",
"P. c #FCFDFD",
"I. c #FCFDFE",
"U. c #FDFDFE",
"Y. c #FDFEFE",
"T. c #FEFEFE",
"R. c gray100",
"E. c None",
/* pixels */
"E.E.E.E.E.E.E.E.E.E.E.E.E.E.E.E.E.E.E.E.E.E.E.E.E.E.E.z l l i i i l l l l E.E.E.E.E.E.E.E.E.E.E.E.E.E.E.E.E.E.E.E.E.E.E.E.E.E.E.",
"E.E.E.E.E.E.E.E.E.E.E.E.E.E.E.E.E.E.E.E.E.E.E.i i i q i q q e q e e q q q q q i i E.E.E.E.E.E.E.E.E.E.E.E.E.E.E.E.E.E.E.E.E.E.E.",
"E.E.E.E.E.E.E.E.E.E.E.E.E.E.E.E.E.E.E.E.i i e q q q i i i i i i i i i i i i q q e q u i E.E.E.E.E.E.E.E.E.E.E.E.E.E.E.E.E.E.E.E.",
"E.E.E.E.E.E.E.E.E.E.E.E.E.E.E.E.E.E.i q i i i i i i q q q q q q q q q q q q i i i i u q i i E.E.E.E.E.E.E.E.E.E.E.E.E.E.E.E.E.E.",
"E.E.E.E.E.E.E.E.E.E.E.E.E.E.E.E.i i e i i i q i q i i i i i i i i i i i i i i q t q i i i e e i E.E.E.E.E.E.E.E.E.E.E.E.E.E.E.E.",
"E.E.E.E.E.E.E.E.E.E.E.E.E.E.h q q i i q q i i i i i i i i i i i i i i i i i i i i u i q q i i i e l E.E.E.E.E.E.E.E.E.E.E.E.E.E.",
"E.E.E.E.E.E.E.E.E.E.E.E.E.i q q i q q e t t i i q i i e q i e e q q e q q e q t u t u u u q i i t e i E.E.E.E.E.E.E.E.E.E.E.E.E.",
"E.E.E.E.E.E.E.E.E.E.E.E.i i i i q q i l i i i i i i i l i i i l i i l i i l i i l i i l i i i i i h i i E.E.E.E.E.E.E.E.E.E.E.E.",
"E.E.E.E.E.E.E.E.E.E.l q q i < q i i i $ $ $ O $ $ @ $ O $ $ @ @ $ @ $ $ @ $ $ O @ $ + $ $ $ $ $ $ $ $ $ q i E.E.E.E.E.E.E.E.E.E.",
"E.E.E.E.E.E.E.E.E.j q q i $ ..A = i i O.,.,.,.&.,.&.,.,.=.=.=.%.;.,.=.=.;.&.,.,.,.=.=.=.=.%.=.,.,.,.,.;.M q j E.E.E.E.E.E.E.E.E.",
"E.E.E.E.E.E.E.E.j q q i $ F N.F < $ ( R.U.R.R.R.R.R.R.R.R.R.R.R.R.R.R.R.R.R.R.R.R.R.R.R.R.R.R.R.R.R.R.y./ q i l E.E.E.E.E.E.E.E.",
"E.E.E.E.E.E.E.E.i q i q b ,.! J O B F.R.F.R.F.R.F.U.F.R.F.R.U.U.R.J.J.R.F.U.U.U.R.J.R.J.U.U.K.R.F.R.h.,.0.O i i b E.E.E.E.E.E.E.",
"E.E.E.E.E.E.E.e t i h $ ,.C P P o g.R.F.R.P.R.P.R.R.U.R.U.R.U.R.R.R.R.P.R.P.R.P.R.R.R.P.R.P.R.K.R.F.[ F.9., i i i E.E.E.E.E.E.E.",
"E.E.E.E.E.E.i i i i + U O.O 7.l ( R.R.R.R.R.P.R.R.R.R.K.R.U.R.U.R.F.P.R.P.R.P.R.R.F.K.R.P.R.R.U.R.;.t.R.@.$ i i e i E.E.E.E.E.E.",
"E.E.E.E.E.i e i i q b 7.O ..P b F.R.U.U.K.U.U.U.U.U.K.U.U.U.U.U.R.K.U.U.U.U.U.U.R.F.R.U.R.R.K.R.l.O.R.m.b q i q i e i E.E.E.E.E.",
"E.E.E.E.E.q q i i $ ,.C N 1.3 c.R.R.R.R.R.R.R.R.R.R.R.R.R.R.R.R.R.R.R.R.R.R.R.R.R.R.R.R.R.K.R.F.[ A.R.J $ i q i i q q E.E.E.E.E.",
"E.E.E.E.i e i i , A @., 0.j B 1.$.&.$.$.$.$.$.&.$.$.$.&.&.&.$.&.%.&.%.$.&.&.&.$.&.$.$.$.&.$.;.! s.R.;.$ h q q q q w q w E.E.E.E.",
"E.E.E.E.i i e i , G T ! T   E B.b.b.b.b.b.b.n.n.b.b.b.b.b.b.b.b.v.b.b.v.b.b.b.b.v.b.b.v.b.b.M.[ D.M.h q w q y h y q q q E.E.E.E.",
"E.E.E.i e i e i $ C y.O.3 , ! R.R.R.R.R.R.R.R.R.R.R.R.R.R.R.R.R.R.R.R.R.R.R.R.R.R.R.R.R.R.R.R.&.A.K , i q q q h h q y q h E.E.E.",
"E.E.E.e i e e i 3 C b.i h + ! R.J.R.R.R.R.R.R.R.R.R.R.R.R.U.R.U.R.R.R.U.R.R.R.R.R.R.R.R.R.R.R.6.| < i q h y w y q w q h q E.E.E.",
"E.E.h q i e t i q j m q i < J t.7.0.0.0.7.0.0.7.9.9.7.l.R.R.R.A.5.V.R.R.R.c.5.0.7.0.0.7.7.7.t.U q q w q y h q w q h q q q e E.E.",
"E.E.q q i i i q y q 3 i i e 3 $ $ $ $ $ , @ = $ $ , . E R.F.R.l.  i.R.F.R.] . $ , @ = $ < $ $ 3 q e q q w q h y w y w h q q E.E.",
"E.E.q q q i i i q w i q i q i i l i i l i l h i l k $ _ R.F.R.l.$ f.R.F.R...< k i l h i l i i i e q q h y w y w y h w q y q z E.",
"E.h q h q i i i q h t i i q i i i i i i i i i i i i $ ( R.F.R.l., s.R.F.R...@ i i i i i i i i i q h w y h q h q w q w q h q h E.",
"E.i e i q i i i i i i i i i i i i i i i i i i i i i $ ( R.F.R.l.@ f.R.J.R...O h q i i i i i i i i i i i i i i i y h q q w q y E.",
"E.q q i i i i i i i i i i i i i i i i i i i i i i i $ ( R.R.R.l., f.R.J.R...+ i q i i i i i i i i i i i i i i i w q h y w q q E.",
"E.q i q i i i i i i i i i i i i i i i i i i i i i i $ / R.F.R.l.O f.R.J.R...$ i q i i i i i i i i i i i i i i i y w y w q y q z ",
"j q i q i i i i i i i i i i i i i i i i i i i i i i + / R.F.R.l.% s.R.J.R...$ i q i i i i i i i i i i i i i i i h q h q q y t z ",
"j i i q i i i i i i i i i i i i i i i i i i i i u i # / R.F.R.l.$ f.R.J.R...O h q i i i i i i i i i i i i i i i i i i i q w q h ",
"l q i q i i i i i i i i i i i i i i i i i i i i t l $ / R.P.R.l.$ f.R.J.R...$ i q i i i i i i i i i i i i i i i i i i i q h q h ",
"i i i e i i i i i i i i i i i i i i i i i i i i q i $ ( R.P.R.l.$ f.R.J.R...$ i q i i i i i i i i i i i i i i i i i i i q i q i ",
"i i i e i i i i i i i i i i i i i i i i i i i i q i $ ( R.F.R.l.+ f.R.J.R...$ i q i i i i i i i i i i i i i i i i i i i q i e i ",
"i q i q i i i i i i i i i i i i i i i i i i i i i i $ ( R.R.R.l.$ f.R.J.R.} + i q i i i i i i i i i i i i i i i i i i i q i q i ",
"l q i q i i i i i i i i i i i i i i i i i i i i i i $ ( R.F.R.l.+ f.R.J.R...$ i q i i i i i i i i i i i i i i i i i i i q i i i ",
"l q i q i i i i i i i i i i i i i i i i i i i i t i $ ! R.F.R.l.$ f.R.J.R...$ i q i i i i i i i i i i i i i i i i i i i e i e l ",
"l q i q i i i i i i i i i i i i i i i i i i i i i i $ ! R.F.R.l.$ f.R.J.R.O.$ i q i i i i i i i i i i i i i i i i i i i q i i i ",
"i i i q i i i i i i i i i i i i i i i i i i i i i l $ / R.F.R.l.$ s.R.J.R...O i q i i i i i i i i i i i i i i i i i i i q i q l ",
"E.i i q i i i i i i i i i i i i i i i i i i i i i i $ / R.R.R.l.$ p.R.J.R...$ i q i i i i i i i i i i i i i i i i i i i q i i k ",
"E.q q i i i i i i i i i i i i i i i i i i i i i u i # / R.J.R.l.$ f.R.J.R...$ i q i i i i i i i i i i i i i i i i i i i q q q E.",
"E.i q i q i i i i i i i i i i i i i i i i i i i e i # / R.F.R.l.+ f.R.J.R...$ l q i i i i i i i i i i i i i i i i i i q i q i E.",
"E.h q i t i i i i i i i i i i i i i i i i i i i u i $ ( R.F.R.l.$ f.R.J.R...O i i i i i i i i i i i i i i i i i i i i t i q i E.",
"E.E.q i q i i i i i i i i i i i i i i i i i i i i i $ ( R.P.R.l.$ f.R.J.R...+ i i i i i i i i i i i i i i i i i i i i q i q b E.",
"E.E.i e i i i i i i i i i i i i i i i i i i i i t i $ / R.P.R.l.+ p.R.J.R...$ i q i i i i i i i i i i i i i i i i i i i e i E.E.",
"E.E.i i i q i i i i i i i i i i i i i i i i i i t i $ / R.F.R.l.$ f.R.J.R...$ l q i i i i i i i i i i i i i i i i i q i q i E.E.",
"E.E.E.e i q i i i i i i i i i i i i i i i i i i i i $ ( R.R.R.l.$ f.R.J.R...$ i q i i i i i i i i i i i i i i i i i q i q E.E.E.",
"E.E.E.i q i q i i i i i i i i i i i i i i i i i i i $ ( R.F.R.l.+ f.R.J.R.[ $ i q i i i i i i i i i i i i i i i i e i q i E.E.E.",
"E.E.E.E.q i q i i i i i i i i i i i i i i i i i t i $ ( R.F.R.l.$ f.R.F.R...$ i q i i i i i i i i i i i i i i i i q i e j E.E.E.",
"E.E.E.E.i q i q i i i i i i i i i i i i i i i i i i $ ! R.F.R.l.$ f.R.R.B.A 3 i q i i i i i i i i i i i i i i i q i e i E.E.E.E.",
"E.E.E.E.E.i i e i i i i i i i i i i i i i i i i q i $ ( R.F.R.l.$ y.R.f.n < i q i i i i i i i i i i i i i i i i q i i E.E.E.E.E.",
"E.E.E.E.E.i e i q i i i i i i i i i i i i i i i q i $ ( R.R.R.l.$ g.5.= q i i i i i i i i i i i i i i i i i i q i q i E.E.E.E.E.",
"E.E.E.E.E.E.i q i q i i i i i i i i i i i i i i i i $ ! R.F.R.l.q B = i t q i i i i i i i i i i i i i i i i q i q i E.E.E.E.E.E.",
"E.E.E.E.E.E.E.e q i q i i i i i i i i i i i i i i i $ _ R.F.R.t.= 3 i i q t i i i i i i i i i i i i i i i q i q q E.E.E.E.E.E.E.",
"E.E.E.E.E.E.E.E.q i i q i i i i i i i i i i i i i i $ / R.R.7.i t i t q i i i i i i i i i i i i i i i i q i i q j E.E.E.E.E.E.E.",
"E.E.E.E.E.E.E.E.l q i i q i i i i i i i i i i i i i $ ( R./ $ q h q q h i i i i i i i i i i i i i i i q i i q h E.E.E.E.E.E.E.E.",
"E.E.E.E.E.E.E.E.E.j q i i q i i i i i i i i i i u i < I J o i i q y y y i i i i i i i i i i i i i i q i i q h E.E.E.E.E.E.E.E.E.",
"E.E.E.E.E.E.E.E.E.E.l q q i q i i i i i i i i i i u i q < i i i h w q h i i i i i i i i i i i i i q i q q h E.E.E.E.E.E.E.E.E.E.",
"E.E.E.E.E.E.E.E.E.E.E.j i q i t q i i i i i i i i i i i i q i i q w y h q h q w i i i i i i i q q i e i j E.E.E.E.E.E.E.E.E.E.E.",
"E.E.E.E.E.E.E.E.E.E.E.E.E.i q i i q q i i i i i i i q i i q i i h y w q w y h y i i i i i e q i i q i E.E.E.E.E.E.E.E.E.E.E.E.E.",
"E.E.E.E.E.E.E.E.E.E.E.E.E.E.i i e i i e q i i i i i i i i i i i q h q h y w q w i i i e q i i e q i E.E.E.E.E.E.E.E.E.E.E.E.E.E.",
"E.E.E.E.E.E.E.E.E.E.E.E.E.E.E.E.i e e i i i q i q i i i i i i i w y w y h q h q t q i i i q q i E.E.E.E.E.E.E.E.E.E.E.E.E.E.E.E.",
"E.E.E.E.E.E.E.E.E.E.E.E.E.E.E.E.E.E.i i q e i i i q q q q q q q q q q q q q w y i i q i e i b E.E.E.E.E.E.E.E.E.E.E.E.E.E.E.E.E.",
"E.E.E.E.E.E.E.E.E.E.E.E.E.E.E.E.E.E.E.E.i i i i q q i i i e i i i i i i q w q q e i e i E.E.E.E.E.E.E.E.E.E.E.E.E.E.E.E.E.E.E.E.",
"E.E.E.E.E.E.E.E.E.E.E.E.E.E.E.E.E.E.E.E.E.E.j i i t q q q q e i q q q q q t q i i z E.E.E.E.E.E.E.E.E.E.E.E.E.E.E.E.E.E.E.E.E.E.",
"E.E.E.E.E.E.E.E.E.E.E.E.E.E.E.E.E.E.E.E.E.E.E.E.E.E.z l l l i i i i h h j z E.E.E.E.E.E.E.E.E.E.E.E.E.E.E.E.E.E.E.E.E.E.E.E.E.E."
};
