/* XPM */
static char *c4d43a47443342d5f5c09e20f054aa47[] = {
/* columns rows colors chars-per-pixel */
"64 64 197 2 ",
"   c #000000",
".  c #0A0000",
"X  c #0A0A00",
"o  c #140000",
"O  c #1F0000",
"+  c #141400",
"@  c #1E1E00",
"#  c #220000",
"$  c #2A0000",
"%  c #380C0C",
"&  c #2A2A00",
"*  c #222500",
"=  c #37322D",
"-  c #450000",
";  c #4F0202",
":  c #520000",
">  c #6B0000",
",  c #650808",
"<  c #7A1010",
"1  c #762F2F",
"2  c #454500",
"3  c #4E4E04",
"4  c #545403",
"5  c #6A6A00",
"6  c #6D6D0D",
"7  c #7D7D1B",
"8  c #75750B",
"9  c #4A4A39",
"0  c #4C4C2B",
"q  c #6D6D2C",
"w  c #767629",
"e  c #7D7D32",
"r  c #6B7A21",
"t  c #3E3E54",
"y  c #4A4A44",
"u  c #544D4D",
"i  c #58584D",
"p  c #5A5857",
"a  c #494952",
"s  c #78464A",
"d  c #645B5B",
"f  c #7A7A43",
"g  c #626259",
"h  c #7A7A5A",
"j  c #556060",
"k  c #686666",
"l  c #776C6C",
"z  c #74746B",
"x  c #7A7A6E",
"c  c #7C7B75",
"v  c #7B7676",
"b  c #8D0101",
"n  c #890606",
"m  c #940000",
"M  c #9C0101",
"N  c #980B0B",
"B  c #941818",
"V  c #8B1616",
"C  c #A40000",
"Z  c #AB0101",
"A  c #A10909",
"S  c #B40000",
"D  c #BD0000",
"F  c #BD0E0D",
"G  c #B61717",
"H  c #892727",
"J  c #873636",
"K  c #902323",
"L  c #C40000",
"P  c #CB0000",
"I  c #D30000",
"U  c #DD0100",
"Y  c #E30000",
"T  c #EB0000",
"R  c #F40000",
"E  c #FE0000",
"W  c #A75801",
"Q  c #FD7D00",
"!  c #E37300",
"~  c #CF6A00",
"^  c #8A4A4A",
"/  c #8B5A5A",
"(  c #945C5C",
")  c #944949",
"_  c #866767",
"`  c #827C7C",
"'  c #887F7F",
"]  c #957979",
"[  c #976E6E",
"{  c #AC7C7C",
"}  c #B55050",
"|  c #8C8C00",
" . c #888806",
".. c #949401",
"X. c #9D9D03",
"o. c #96960B",
"O. c #888818",
"+. c #969614",
"@. c #A09F00",
"#. c #A4A402",
"$. c #ADAD00",
"%. c #A0A008",
"&. c #B5B500",
"*. c #BCBC00",
"=. c #B7B70E",
"-. c #A0A012",
";. c #898925",
":. c #979726",
">. c #888835",
",. c #A7A735",
"<. c #C5C500",
"1. c #CBCB05",
"2. c #D2D200",
"3. c #DCDC00",
"4. c #D1CF00",
"5. c #E4E400",
"6. c #EBEB00",
"7. c #E0E800",
"8. c #F2F200",
"9. c #FEFE00",
"0. c #83834A",
"q. c #89895A",
"w. c #929246",
"e. c #8E8E67",
"r. c #82827C",
"t. c #8A8A79",
"y. c #989775",
"u. c #BABA52",
"i. c #797987",
"p. c #8C7784",
"a. c #7A8281",
"s. c #858383",
"d. c #8C8585",
"f. c #8C8A89",
"g. c #938D8D",
"h. c #939389",
"j. c #959393",
"k. c #9B9494",
"l. c #9B9B94",
"z. c #9C9A9B",
"x. c #93989D",
"c. c #8E9298",
"v. c #A49D9C",
"b. c #A39696",
"n. c #9BA898",
"m. c #A2A29B",
"M. c #A8A89E",
"N. c #9494A5",
"B. c #99A5A5",
"V. c #A6A4A4",
"C. c #AAA4A3",
"Z. c #ACACA4",
"A. c #ADABAB",
"S. c #A8A8AC",
"D. c #B3ABAA",
"F. c #B2B2AB",
"G. c #AAAAB2",
"H. c #ABB4B4",
"J. c #AEB9B9",
"K. c #B4B4B3",
"L. c #B4B4BC",
"P. c #BAB9B8",
"I. c #C3BBBB",
"U. c #C1C184",
"Y. c #C5C5BE",
"T. c #BCBCC7",
"R. c #BAC5C5",
"E. c #C9C9C5",
"W. c #D2D2CD",
"Q. c #CDCDDC",
"!. c #C7C7D3",
"~. c #C9D7D7",
"^. c #D6D5D2",
"/. c #D9DAD8",
"(. c #D2CDCD",
"). c #E2E2DE",
"_. c #D4D4E3",
"`. c #DADAEA",
"'. c #DCDCF1",
"]. c #D9E7E7",
"[. c #D5EAEA",
"{. c #E5E4E2",
"}. c #ECEBEA",
"|. c #E7E7E7",
" X c #E9E9F7",
".X c #E5F5F5",
"XX c #EDFBFB",
"oX c #E4FAFA",
"OX c #F5F5F5",
"+X c #F9F9F6",
"@X c #F4F4FE",
"#X c #F4FFFF",
"$X c #FDFDFD",
"%X c #F9F7F7",
"&X c #F1F0EE",
"*X c #E1DBDB",
"=X c None",
/* pixels */
"=X=X=X=X=X=X=X=X=X=X=X=X=X=X=X=X=X=X=X=X=X=X=X=X=X=X                        =X=X=X=X=X=X=X=X=X=X=X=X=X=X=X=X=X=X=X=X=X=X=X=X=X=X",
"=X=X=X=X=X=X=X=X=X=X=X=X=X=X=X=X=X=X=X=X=X=X      O - > b C S D D S C b > - O       =X=X=X=X=X=X=X=X=X=X=X=X=X=X=X=X=X=X=X=X=X=X",
"=X=X=X=X=X=X=X=X=X=X=X=X=X=X=X=X=X=X=X=X  . - b I R E E E E E E E E E E E E E I b - .   =X=X=X=X=X=X=X=X=X=X=X=X=X=X=X=X=X=X=X=X",
"=X=X=X=X=X=X=X=X=X=X=X=X=X=X=X=X=X    # b Y E E E E E E E R E E E E E E R E E E E E Y b $     =X=X=X=X=X=X=X=X=X=X=X=X=X=X=X=X=X",
"=X=X=X=X=X=X=X=X=X=X=X=X=X=X=X=X  $ C E E E E E E E E E E E R E E E E E E E E E E E E E E C $   =X=X=X=X=X=X=X=X=X=X=X=X=X=X=X=X",
"=X=X=X=X=X=X=X=X=X=X=X=X=X=X  o m E E E E E E E E E E E E E E E E E E E E E E E E E E R E E E m o   =X=X=X=X=X=X=X=X=X=X=X=X=X=X",
"=X=X=X=X=X=X=X=X=X=X=X=X=X  ; T E E E E E E E E E E E E E U M C T E E E E E E E E E E E E E E E Y :   =X=X=X=X=X=X=X=X=X=X=X=X=X",
"=X=X=X=X=X=X=X=X=X=X=X    m E E R E E E E E E E E E E E L l ].!.s Y E E E E E E E E E E E E E E E E m     =X=X=X=X=X=X=X=X=X=X=X",
"=X=X=X=X=X=X=X=X=X=X  o L E E E E E E E E E E E E E E Y s $X$X$X].V E E E E E E E E E E E E E E E R E L o   =X=X=X=X=X=X=X=X=X=X",
"=X=X=X=X=X=X=X=X=X  O U E E E E E E E E E E E E E E E V ~.$X%X%X$X_ Y E E E E E E E E E E E E E E E E E U #   =X=X=X=X=X=X=X=X=X",
"=X=X=X=X=X=X=X=X  & ! E E E E E E E E E E E E E E E b H.$X$X$X$X$XP.Z E E E E E E E E E E E E E E E E E E Y O   =X=X=X=X=X=X=X=X",
"=X=X=X=X=X=X=X  + 3.9.Q E E E E E E E E E E E E E b H.$X$X$X$X$X$XXXJ E E E E E E E E E E E E E E E E E E E U o   =X=X=X=X=X=X=X",
"=X=X=X=X=X=X=X  <.9.9.9.Q E E E E E E E E E E E n J.$X+X$XOX{.$X+X$Xd.Y E E E E E E E E E E E E E E E E E E E L   =X=X=X=X=X=X=X",
"=X=X=X=X=X=X  ..9.8.9.9.9.Q E E E E E E E E E n J.$X+X$X$XA.v.$X+X$XR.S E E E E E E E E E E E E E E E E E E E E M   =X=X=X=X=X=X",
"=X=X=X=X=X  4 9.9.9.9.9.9.9.Q E E E E E E E n J.$X+X$X$X$Xp ^.$X$X$X.XK E E E E E E E E E E E E E E E E E E E E E :   =X=X=X=X=X",
"=X=X=X=X=X+ 5.9.9.9.9.9.9.9.9.Q E E E E E N J.$X+X$X$X$XK.= $X$X$X$X$X^ E E E E E E E E E E E E E E E E E E E E E Y o =X=X=X=X=X",
"=X=X=X=X  ..9.9.9.9.9.9.9.9.9.9.Q E E E M B.$X$X$X+X$XXX1 / $X$X$X+X$X] Y E E E E E E E E E E E E E E E E E E E E E m   =X=X=X=X",
"=X=X=X  & 9.9.9.9.2.5.9.9.9.9.9.9.Q E Z j.$X%X$X$X$XXX_ M C.$X+X$X$X$XC.P E E E E E E E E E E E E E E E E E E E E E E $   =X=X=X",
"=X=X=X  #.9.9.9.3.z e.&.9.9.9.9.9.9.W p.$X%X$X$X#XH.s U Z ~.$X$X$X$X$XP.D E E E E E E E E E E E E E E R R P R E E E E M   =X=X=X",
"=X=X=X& 9.9.9.9.9.;._.V.;.o.$.*.&. .B.$X+X$X$XJ.J Z E E K XX$X$X$X+X$XR.S E E E E E E E E E E E E D J ^ ^ B.V E E E E E $ =X=X=X",
"=X=X   .9.9.9.9.9.5.h $XOXQ.T.L.L.`.$X+X$XT.s Z R E E R ) $X$X$X$X$X$X!.S E E E E E E E E E E E M c.#X$X.X_ P E E E E E b   =X=X",
"=X=XX 5.9.9.9.9.9.9.#.c.@X$X$X$X$X$X+X$Xn.W R E E E E R ( $X%X%X$X+X$XR.S E E E E E E D E E E m z.$X$X~.1 Y E E E E E E U . =X=X",
"=X  2 9.9.9.9.9.9.9.9.*.;.f.Q.$X+X+X$XS.X.9.Q E E E E T _ $X$X$X$X$X$XK.D E E E R E n < U V J A.$X$X].1 R E E E E E E E E -   =X",
"=X  | 9.8.9.9.9.9.9.9.9.9.3.8 !.$X$X@Xe 9.9.9.Q E E E E ^ x.d.V.c V.+Xb.P E E E E F k D / oX#X$X$X.X1 T E E E E E E E E E b   =X",
"=X  2.9.9.9.9.9.9.9.9.9.9.9.8.;.G.`.c <.9.9.9.9.Q E U F % a.C.y j.k v.d M E E E Z B.^ R ^ $X$X$X$X_ I E E E E E E E E E E I   =X",
"=X@ 9.9.9.9.9.9.9.9.9.9.9.9.9.9.&.X.4.9.9.9.9.9.9.~ s a.k.K.l D.' d.= k.t D E C J.d.D E C G.$X$X[.N E E E E E E E E E E E E O =X",
"  2 9.9.9.9.9.9.9.9.9.9.9.9.9.9.8.7 u.,.:.:.+.=.4.r c.G.C.v ` d.l {.` k j.; F R.B.C E E E J .X$X[.B E E E E E E E E E E E E -   ",
"  5 9.9.9.9.9.9.9.9.9.9.9.9.9.9.9.=.t.l.h.k N.c.a d.j.v u ` ` u j.v f.l ' p d g.S E E E E Z R.$X$XJ E E E E E E E E E E E E >   ",
"  | 9.9.9.9.9.9.9.9.9.9.9.9.9.9.9.9.6.6.O.T.m.= x s.j.l.p g g.k.d.u p ` k ` k ) T E E E E L F.$X$X] U E E E E E E E E E E E b   ",
"  #.9.9.9.9.9.9.9.9.9.9.9.9.9.9.9.9.9.+.i.0.y $Xp i g r.m.v.P.(.C.d d.d k d I.$X( R E E E P v.$X$XR.S E E E E E E E E E R E C   ",
"  &.9.9.9.9.9.9.9.9.9.9.9.9.9.9.9.9.6.4 1.8 E.).z c y h.|.$X$X$X%X|.I.` d.g.K.$X[.G E E E I v.$X$XXXH E E E E E E E E E E E S   ",
"  *.9.9.9.9.9.9.9.9.9.9.9.9.9.9.9.9.8.9.8.9 j.h.Y.l.c m.+X|.&X+X{.}.%X` ' d.I.^.XX{ R E E P v.$X%X$X_ T E E E E E E E E E E D   ",
"  *.9.9.9.9.9.9.9.9.9.9.9.9.9.9.9.9.9.9.#.(.W.W.Y./.k j.^.z ^.&XI.d.|.V.g.E.(.E.*XE.I E E P A.$X+X$XA.L E E E E E E E E E E D   ",
"  &.9.9.9.9.9.9.9.9.9.9.9.9.9.9.9.9.<.e c ).W.^.F.Z.k V.$Xl.|.}.(.g.%Xj.d.D.I.^.^.].G E E L K.$X+X$X].A E E E E E E E E E E S   ",
"  #.9.9.9.9.9.9.9.9.9.9.9.9.9.9.9. .j. XY.).E.l.F.F.z m.$X$X+X}.).$X$Xk.u b.C.b.I.OX} E E L L.$X%X$XXXJ E E E E E E E E E E C   ",
"  | 9.9.9.9.9.9.9.9.9.9.9.9.9.6.7 T.$X).m.Z.Z.{.$X+Xc t.{.$X)./.).$X/.d.d.}.$X*Xb.K.l m E F A.$X$X$X$X( T E E E E E E E E E b   ",
"  5 9.9.9.9.9.9.9.9.9.9.9.9.6.w Q.$X$XOX(.}.$X$X+X$XZ.z Z.+XW.K.^.+Xl.s.V.$X$X$X$X{.).R.H I [ $X%X$X$Xb.I E E E E E E E E E >   ",
"  2 9.9.9.9.9.9.9.9.9.9.9.6.e `.$X$X$X$X$X$X$X+X$X$XE.9 v Y.).F.|.F.r.z |.$X$X$X$X$X$X$X[.J , ).$X%X$XP.D E E E E E E E E E -   ",
"=X@ 9.9.9.9.9.9.9.9.9.9.8.q _.$X+X$X$X$X$X+X$X$X@Xz. .5.;.p f.L.r.g p |.$X$X$X$X$X$X$X+X$X#Xd u $X$X$X].N E E E E E E E E E O =X",
"=X  4.9.9.9.9.9.9.9.9.9.O.Q.$X+X$X$X$X$X$X$X$XT.f *.9.9.9.6 a i L.w.#.h.@X$X+X$X$X$X$X$X$X$X$Xv k.$X$X#XJ E E E E E E E E I   =X",
"=X  | 9.9.9.9.9.9.9.9. .T.$X$X$X$X$X$X$X XG.0.#.6.9.9.9.9.q a.x k w.9.<.f _.$X$X@X$X$X$X$X$X$X%X(.$X$X$Xz.L E E E E E E E b   =X",
"=X  2 9.9.9.9.9.9.9. .T.$X@X$X$X$X&XP.e.+.<.8.9.9.9.9.9.9.o.v g a.q 8.9.6.O.z.@X$X$X$X$X%X$X$X$X$X$X$X$X.XH E E E E E E E -   =X",
"=X=XX 5.9.9.9.9.9.$.G.$X+X$X$XW.r.p 9 q o.3.9.9.9.9.9.8.9.#.k p l j  .9.9.9.=.e V._.$X$X$X$X$X$X+X$X$X+X$X[ Y E E E E E Y . =X=X",
"=X=X   .9.9.9.9.9.;. X$X$X$X$X{./.+X$X#X'.d.o.6.9.9.9.9.9.X.t V.y Q.U.1.8.9.9.9.<.o.>.t.S.~..X#X$X$X$X$X$X/ R E E E E E b   =X=X",
"=X=X=X& 9.9.9.9.9.%.!.$X$X$X$X$X$X$X$X$X$X$XQ.f *.9.9.9.9.3.5 9 f.= M.x 3 <.9.9.9.9.9.7.~ m K J / k._.#XB.C E E E E E E $ =X=X=X",
"=X=X=X  X.9.9.9.9.6.f !. X@X$X$X$X$X+X$X$X$X$X@Xz.O.3.9.9.9.8. .y.i.$.8.5.8.9.9.9.9.9.9.9.Q E E T P A H Z E E E E E E C   =X=X=X",
"=X=X=X  & 9.9.9.9.9.6.%.;.>.q.V.'.$X$X$X$X$X+X$X$X`.y.O.$.$.@.3.<.z.,.9.9.9.9.9.9.9.9.9.9.9.Q E E E E E E E E E E E E $   =X=X=X",
"=X=X=X=X  | 9.8.9.9.9.9.9.9.8.*.+.q.K.'.$X$X$X$X$X$X$X'.T.T.Q.s.2.,.0.9.9.9.9.9.9.9.9.9.9.9.9.Q E E R E E E E E E E m   =X=X=X=X",
"=X=X=X=X=X+ 5.9.9.9.9.9.9.9.9.9.9.6.*.O.q.m.T.`.@X$X$X$X$X$X$XH.<.5.6 9.9.9.9.9.9.9.9.9.9.9.9.9.Q E E E E E E E E Y o =X=X=X=X=X",
"=X=X=X=X=X  4 9.9.9.9.9.9.9.9.9.9.9.9.9.8.4.$.+.>.q.S. X$X+X$Xq.6.9.2.9.9.9.9.9.9.9.9.9.9.9.9.9.9.Q E E E E E E E ;   =X=X=X=X=X",
"=X=X=X=X=X=X  ..9.9.9.9.9.9.9.9.9.9.9.9.9.9.9.9.9.8.<.w `.$X@X>.9.9.9.9.9.9.9.9.9.9.9.9.9.9.9.9.9.9.Q E E E E E m   =X=X=X=X=X=X",
"=X=X=X=X=X=X=XX <.9.8.9.9.9.9.9.9.9.9.9.9.9.9.9.9.9.9.5.q.$X$Xe.5.9.9.9.9.9.9.9.9.9.9.9.9.9.9.9.9.9.9.Q E E E L   =X=X=X=X=X=X=X",
"=X=X=X=X=X=X=X  + 3.9.9.9.9.9.9.9.9.9.9.9.9.9.9.9.9.8.9.-.!.$XL.=.9.9.9.9.9.9.9.9.9.9.9.9.9.9.9.9.9.9.9.Q E U o   =X=X=X=X=X=X=X",
"=X=X=X=X=X=X=X=X  @ 5.9.9.9.9.9.9.9.9.9.9.9.9.9.9.9.9.9.3.t.$XQ.%.9.9.9.9.9.9.9.9.9.9.9.9.9.9.9.9.9.9.8.9.! #   =X=X=X=X=X=X=X=X",
"=X=X=X=X=X=X=X=X=X  @ 3.9.9.9.9.9.9.9.9.9.9.9.9.9.9.9.9.9.;.@XT.$.9.9.9.9.9.9.9.9.9.9.9.9.9.9.9.9.9.9.9.3.*   =X=X=X=X=X=X=X=X=X",
"=X=X=X=X=X=X=X=X=X=X  + <.9.9.9.9.9.9.9.9.9.9.9.9.9.9.9.9.-._.0.6.9.9.9.9.9.9.9.9.9.9.9.9.9.9.9.9.9.9.<.+   =X=X=X=X=X=X=X=X=X=X",
"=X=X=X=X=X=X=X=X=X=X=X    X.9.9.9.9.9.9.9.9.9.9.9.9.9.9.9.,.c.&.9.9.9.9.9.9.9.9.9.9.9.9.9.9.9.9.9.9.X.    =X=X=X=X=X=X=X=X=X=X=X",
"=X=X=X=X=X=X=X=X=X=X=X=X=X  3 6.9.9.9.9.9.9.9.9.9.9.9.9.9.=.q 9.9.9.9.9.9.9.9.9.9.9.9.9.9.9.9.9.6.3   =X=X=X=X=X=X=X=X=X=X=X=X=X",
"=X=X=X=X=X=X=X=X=X=X=X=X=X=X  + ..9.9.9.9.9.9.9.9.9.9.9.9.9.8.9.9.9.9.9.9.9.9.9.9.9.9.9.9.9.9...+   =X=X=X=X=X=X=X=X=X=X=X=X=X=X",
"=X=X=X=X=X=X=X=X=X=X=X=X=X=X=X=X  & #.9.9.9.8.9.9.9.9.9.9.9.9.9.9.9.9.9.9.9.9.9.8.9.9.9.9.#.*   =X=X=X=X=X=X=X=X=X=X=X=X=X=X=X=X",
"=X=X=X=X=X=X=X=X=X=X=X=X=X=X=X=X=X    * | 5.9.9.9.9.9.8.9.9.9.9.9.9.9.9.9.9.9.9.9.9.5.| *     =X=X=X=X=X=X=X=X=X=X=X=X=X=X=X=X=X",
"=X=X=X=X=X=X=X=X=X=X=X=X=X=X=X=X=X=X=X=X  X 2 | 4.9.9.9.9.9.9.9.9.9.9.9.9.9.9.4.| 2 X   =X=X=X=X=X=X=X=X=X=X=X=X=X=X=X=X=X=X=X=X",
"=X=X=X=X=X=X=X=X=X=X=X=X=X=X=X=X=X=X=X=X=X=X      @ 2 5 | #.&.*.*.&.#.| 5 2 @       =X=X=X=X=X=X=X=X=X=X=X=X=X=X=X=X=X=X=X=X=X=X",
"=X=X=X=X=X=X=X=X=X=X=X=X=X=X=X=X=X=X=X=X=X=X=X=X=X=X                        =X=X=X=X=X=X=X=X=X=X=X=X=X=X=X=X=X=X=X=X=X=X=X=X=X=X"
};
