/* XPM */
static char *_0c9b9317fa94c33dcf916cf36f72177[] = {
/* columns rows colors chars-per-pixel */
"128 128 42 1 ",
"  c #4F8ABF",
". c #568FC1",
"X c #588FC2",
"o c #5B92C3",
"O c #6397C6",
"+ c #6498C7",
"@ c #679AC8",
"# c #6B9DC9",
"$ c #709FCB",
"% c #6FA0CB",
"& c #74A2CC",
"* c #7CA7CF",
"= c #7CA8CF",
"- c #7EA9D0",
"; c #84ADD2",
": c #8CB2D5",
"> c #91B6D7",
", c #93B7D8",
"< c #94B8D8",
"1 c #9BBDDB",
"2 c #A5C2DE",
"3 c #A9C5DF",
"4 c #ABC7E0",
"5 c #ADC9E1",
"6 c #B1CBE2",
"7 c #BBD2E6",
"8 c #BFD4E8",
"9 c #C3D7E9",
"0 c #C6D9EA",
"q c #CBDCEC",
"w c #D0DFEE",
"e c #D3E1EE",
"r c #D6E3F0",
"t c #DAE6F2",
"y c #DDE8F2",
"u c #E1EBF3",
"i c #EBF1F7",
"p c #EEF3F8",
"a c #F2F6FA",
"s c #F5F8FB",
"d c #FEFEFE",
"f c None",
/* pixels */
"fffffffffffffffffffffffffffffffffffffffffffffffffffffffff%%%$#@####$$%%fffffffffffffffffffffffffffffffffffffffffffffffffffffffff",
"fffffffffffffffffffffffffffffffffffffffffffffffffff%@@++OO+OOOOOOOOOOO+O++@@$fffffffffffffffffffffffffffffffffffffffffffffffffff",
"fffffffffffffffffffffffffffffffffffffffffffffff#++OOOOOO+OO+++++++OO++OO+OOOOO++$fffffffffffffffffffffffffffffffffffffffffffffff",
"ffffffffffffffffffffffffffffffffffffffffffff#++O+OOOO+O+O+++++++++++++++O+O+O+O+O+@@%fffffffffffffffffffffffffffffffffffffffffff",
"fffffffffffffffffffffffffffffffffffffffff#+OOOO+++O++++OOO+OO+OOOOOOO+OOO++++O+++OOOO+#fffffffffffffffffffffffffffffffffffffffff",
"ffffffffffffffffffffffffffffffffffffff&+OOOO+++O+++OOOO++++++++++++++++++O+OO+++O+++OOOO@%ffffffffffffffffffffffffffffffffffffff",
"ffffffffffffffffffffffffffffffffffff%+OOO++O++O++O++++++++++++++++++++++++++++OO+OO+O+OO+O+#ffffffffffffffffffffffffffffffffffff",
"ffffffffffffffffffffffffffffffffff$+O+O+OO+OO++++++++++++++++++++++++++++++++++++++OO+++++OO+#ffffffffffffffffffffffffffffffffff",
"ffffffffffffffffffffffffffffffff&OOOOO+++O+++++++++++++++++++++++++++++++++++++++++++@OO++OOOO@$ffffffffffffffffffffffffffffffff",
"fffffffffffffffffffffffffffffff@OOOOO@O+O++++++++++++++++++++++++++++++++++++++++++++O+O+O++OOOO+fffffffffffffffffffffffffffffff",
"fffffffffffffffffffffffffffff#OOO+++O+++++++++++++++++++++++++++++++++++++++++++++++++++++OO@O++OO#fffffffffffffffffffffffffffff",
"ffffffffffffffffffffffffffff+OOO++OOO++++++++++O++++++++++++++++++++++++++++++++++++++++++O@OO+++OO+ffffffffffffffffffffffffffff",
"ffffffffffffffffffffffffff#OO+OOO+++++++++++O@OO++++++++++++++++++++++++++++++++++++++++++++++OO+O+OO@ffffffffffffffffffffffffff",
"fffffffffffffffffffffffff+O++O++++++++++++++O@O@++++++++++++++++++++++++++++++++++++++++++++++++O+++OO+fffffffffffffffffffffffff",
"ffffffffffffffffffffffff+O+OO++++++++++OOOOOOOOOO+OOO+OOOO+OOO+O+OOO+OOO+OOOO+OOOOO@OO+OOOOOO+OOO+OO++OOffffffffffffffffffffffff",
"fffffffffffffffffffffffO++O++OO+O+++O@++++++O@O@++++++++++++++++++++++++++++++++++O++++++++++++O+++++O+O+%ffffffffffffffffffffff",
"fffffffffffffffffffff#OO++++O++++O+++OOO+@+@@@O@@OOOOOOO@OOO+@++++O@OOO@@O@O@OOOOO+++@+++++OO+OO++++@@+++O#fffffffffffffffffffff",
"ffffffffffffffffffff#O+++OO++XoOO+++O+OoooOoooooooOXOOoXooOoOooooooooOooooOXoOOoOOoooooOoooOoOoXoOoXoooXo+O@ffffffffffffffffffff",
"fffffffffffffffffff#OO++O+++O4;o++O++O#;==******;******;;*******=**;*;;**************&;*****;***=;**;=-;*o+O#fffffffffffffffffff",
"ffffffffffffffffff@OOO+++O+X1d3X++++O+uddsdddsdddsddsdsdssddsddddddsssdssddddddsdsdddddddddddddddddddddd<+O+O#ffffffffffffffffff",
"fffffffffffffffff#OOO+OO++o&ad2X@+++.7ddddddddddddddddddddddddddddddddddddddddddddddddddddddddddddddddd6>1X++O@fffffffffffffffff",
"ffffffffffffffff#OO++OO+++oy0e4.+++o:dddddddddddddddddddddddddddddddddddddddddddddddddddddddddddddddddu%i<X+OOO@ffffffffffffffff",
"ffffffffffffffffOO++O++++X2s+e6.@+O@uddddddddddddddddddddddddddddddddddddddddddddddddddddddddddddddsdd;6d>X@+OOO%fffffffffffffff",
"fffffffffffffffO+++O++O+o&d< y4.++.7ddddddddddddddddddddddddddddddddddddddddddddddddddddddddddddddddd6:dd<o@+++OOfffffffffffffff",
"ffffffffffffff+O++O+O+++ouqXor4.@X>dddddddddddddddddddddddddddddddddddddddddddddddddddddddddddddddddu$idd>X+++O+O+ffffffffffffff",
"fffffffffffff+O++O+++++.3a#OXy6XO#uddddddddddddddddddddddddddddddddddddddddddddddddddddddddddddddddd;7ddd<o++++O+++fffffffffffff",
"ffffffffffff#OOOO+++O+o=d>oo;d:oX8dsddddddddddddddddddddddddddddddddddddddddddddddddddddddddddddddd5;dddd>X+++++O+O@ffffffffffff",
"ffffffffffffO+O+O+O+++oy0X+Oi8XX>dddddddddddddddddddddddddddddddddddddddddddddddddddddddddddddddddy$pdsdu#O++++O+OOOffffffffffff",
"fffffffffff+O+OO+++O@X4p@O.7iOo#iddddddddddddddddddddddddddddddddddddddddddddddddddddddddddddddddd-8dddd:X++O++++O+O+fffffffffff",
"ffffffffff%OO+OO+OO+o=d>Xo;d;oo9ddddddddddddddddddddddddddddddddddddddddddddddddddddddddddddddddd4:dddd6X+O++++++O++O@ffffffffff",
"ffffffffffOOO+O@+O+Oou0.+Oi7oX>dddddddddddddddddddddddddddddddddddddddddddddddddddddddddddddddddy%idddu+O++O++++++++OOffffffffff",
"fffffffff@O++O++OO@X6p@O.8i+o%pddddddddddddddddddddddddddddddddddddddddddddddddddddddddddddddddd-9dddd;o+O++++++++O++O+fffffffff",
"ffffffff%O+O++++++o=d:Xo:d;Xo7siipiipiipiipiipiiiiipiipiipiipiipipiiipiiipiiipiiipiiipipipipiis3>dddd6X+O+++++++++++O+O#ffffffff",
"ffffffff+O++O++O++o>p+O+i6X@O&&&&&&&&&&&&&&&&&&&&&&&&&&&&&&&&&&&&&&&&&&&&&&&&&&&&&&&&&&$&&&&&*%%pdddyOO++O+++++++++O+OO+ffffffff",
"fffffff$O+OO+++O++o:p#.8uO++Owpippppiiiippppppppppiippppppppppppppppppppppppppipppipppiippppipq;dddd;o++++++++++++++O+OO#fffffff",
"fffffff+O++O+++O++o:ao;d;X++Oyddddddddddddddddddddddddddddddddddddddddddddddddddddddddddddddddt;ddd6X+++O++++++++++++++O+fffffff",
"ffffff#O+O+++++++@X>i#p6.++OOtddddddsdddddddddddddddddddddddddddddddddddddddddddddddddddddddddr;ddy+O++O+++++++++++++O++O#ffffff",
"ffffff+O+++++++O++o>uquo++++Oyddddddddddddddddddddddddddddddddddddddddddddddddddddddddddddddddt;dd;o+++++++++++++++++O++++ffffff",
"fffff%++OO+++++O++X:dd-X+++Ooyddddddddddddddddddddddddddddddddddddddddddddddddddddddddddddddddr;d4X+O++++++++++++++++++O+O#fffff",
"fffff+O++++++++O+@X:d4.@+++OOtdddddddddddsdsddddddddsdddddddddddddddddddddddddddsdddddsdddddddr:yOO++O++++++++++++++++O++O+fffff",
"fffffO+O+O+++++O++o#<@O++O+OOyddddddddddddddddddddddddddddddddddddddddddddddddddddddddddddddddy;;X++O++++++++++++++++++OOOOfffff",
"ffff#O++O+++++++O+@oo@O+OO+O+:<,<<<<<<<<,,<<<<<<<<<<<<>idddddddr::qddddddda1><<<,,<<<<<<<,<<<<:OO++++++++++++++++++++++O++O@ffff",
"ffffOO++++++++++++O+@+O+@+O+OoXXXXXoXXXoXXoooXXXoXXXXXXyddddddd9  4dddddddp+.oXoXXoooXXoXoXXoXoO+++++++++++++++++++++++++OOOffff",
"ffffOOOO++++++++++++O+O++++O+++++@@@+@@++@++@@+@@+@+@@+udddddsd9Oo6dsddddda#O+++@+++@++@@+@+++@++O++++++++++++++++++++++O++O#fff",
"fff#OO+O++++++++++++++++++++++++++++OOOOOOO+++OOO+++OOOudddddsd9oo6ddddddda#o+++++++++++++++++++O+++++++++++++++++++++++O+OO#fff",
"fff+O+++++++++++++++++++++++O+O++++++++++++++++++OOO@OOuddddddd9XX6dddddddp#o++OOOO+++O+OO+OOOOO++++++++++++++++++++++++++OO+fff",
"fffOO+O++++++++++++++++++++++++++++++++++++++++++++OOOOyddddddd9oo6ddddddda#+++O++++++++++++++++++++++++++++++++++++++++++++O%ff",
"ff#O+++++++++++++++++++++++++++++++++++++++++++++++O@OOuddddddd9oo5dddddddp@O+++++++++++++++++++++++++++++++++++++++++++++O+O#ff",
"ff+O++++++++++++++++++++++++++++++++++++++++++++++O+++Oyddddddd9Xo6dddddddp#o++++++++++O+++++++++++++++++++++++++++++++++++OO+ff",
"ff+O+++++++++++++++++++++++++++++++++++++++++++++++++O+yddddddd9oo6dddddddp#+++++++++++++++++++++++++++++++++++++++++++++++OOOff",
"ff+OO+++++++++++++++++++++++++++++++++++++++++++++O+++Oydddddsd9oo6dddddddi#o+++++++++++++++++++++++++++++++++++++++++++++O+OO&f",
"f%+++O++++++++++++++++++++++++++++++++++++++++++++O++++yddddddd9oX6dddsddda#O++O++++++++++++++++++++++++++++++++++++++++++O+OO#f",
"f@OO++++++++++++++++++++++++++++++++++++++++++++++O++OOyddddddd9oX6ddddddda#o+++++++++++++++++++++++++++++++++++++++++++++O++O@f",
"f@O++O+++++++++++++++++++++++++++++++++++++++++++++O+O+yddddddd9oo6dddddddp#++O+++++++++++++++++++++++++++++++++++++++++++O++O@f",
"f+OO+O+++++++++++++++++++++++++++++++++++++++++++++O+O+yddddddd9oo6dddddddp#O+++++++++++++++++++++++++++++++++++++++++++++O+OOOf",
"f++OO++++++++++++++++++++++++++++++++++++++++++++++++OOudddddsd9oX6ddddddda#o+OO++++++++++++++++++++++++++++++++++++++++++@O+OOf",
"fOO+O++++++++++++++++++++++++++++++++++++++++++++++O+OOudddddsd9oo6dddddddp#O++O+++++++++++++++++++++++++++++++++++++++++++O+O+%",
"&OO++++++++++++++++++++++++++++++++++++++++++++++++++OOyddddddd9oX6ddddsddp#O++O+++++++++++++++++++++++++++++++++++++++++++++OO#",
"#OO+O++++++++++++++++++++++++++++++++++++++++++++++O+OOuddddddd9oX6ddddddda#O++O+++++++++++++++++++++++++++++++++++++++++++O++O#",
"&O++O++++++++++++++++++++++++++++++++++++++++++++++O+OOyddddddd9oo6dsdddddp#o++O+++++++++++++++++++++++++++++++++++++++++++O++O%",
"%O++O++++++++++++++++++++++++++++++++++++++++++++++++OOuddddddd9oX6dddddddp#O++O+++++++++++++++++++++++++++++++++++++++++++O++O#",
"#O++O++++++++++O++++++++++++++++++++++++++++++++++O++OOuddddddd9oo6dddddddp#OO+O+++++++++++++++++++++++++++++++++++++++++++O++O@",
"#O++O++++++++++@+++++++++++++++++++++++++++++++++++O+OOydddddsd9oo6dddddddp%O++O+++++++++++++++++++++++++++++++++++++++++++O++O@",
"@O++O++++++++++++++++++++++++++++++++++++++O+++++++O+OOuddddddd9oX6dddddddp#o++O+++++++++++++++++++++++++++++++++++++++++++O++O@",
"@+++O++++++++++++++++++++++++++++++++++++++++++++OO+@OOuddddddd9oX6dddddddp#O+O+++++++++++++++++++++++++++++++++++++++++++@OOOO@",
"%o++O++++++++++++++++++++++++++++++++++++++++++++@+OOOOyddddddd9oo6ddddddda#OOO+++++++++++++++++++++++++++++++++++++++++++OOO@O@",
"#++++++++++++++++++++++++++++++++++++++++++++++++++O+OOuddddddd9oo6dddddddi#O++O+++++++++++++++++++++++++++++++++++++++++OOO+++@",
"%o++O+++++++++++++++++++++++++++++++++++++++++++++OO@OOudddddsd9oX6dsdddddp@o+O+++++++++++++++++++++++++++++++++++++++++++OO+++#",
"%+++O++++++++++++++++++++++++++++++++++++++++++++++O+OOydddddsd9oo6ddddddda#OO++++++++++++++++++++++++++++++++++++++++++++++++O#",
"%++++++++++++++++++++++++++++++++++++++++++++++++++O@OOyddddddd9oX6dddddddp#OOO++++++++++++++++++++++++++++++++++++++++++++O++O%",
"$++++++++++++++++++++++++++++++++++++++++++++++++++O+OOuddddddd9oo6dddddddp#O++O+++++++++++++++++++++++++++++++++++++++++++O++O#",
"fOO+++++++++++++++++++++++++++++++++++++++++++++++++OOOuddddddd9oo6ddddddda#o+O++++++++++++++++++++++++++++++++++++++++++++O+OO%",
"f+++O++++++++++++++++++++++++++++++++++++++++++++++O@OOyddddddd9oX6dddddddp#O+OO+++++++++++++++++++++++++++++++++++++++++++O+O+f",
"f++++++++++++++++++++++++++++++++++++++++++++++++++OOOOuddddddd9oX6ddddsddp#O++++++++++++O+++++++++++++++++++++++++++++++++OOO+f",
"f@+++O+++++++++++++++++++++++++++++++++++++++++++++O@OOydddddsd9oX6ddddddda#O++O++++++++++++++++++++++++++++++++++++++++++O+++@f",
"f#+++++++++++++++++++++++++++++++++++++++++++++++++OOOOuddddddd9oo6dsdddddp#o++O++++++++++++++++++++++++++++++++++++++++++O++O#f",
"f%OO+O+++++++++++++++++++++++++++++++++++++++++++OO+@OOyddddddd9oX6dddddddp#O+OO++++++++++++++++++++++++++++++++++++++++++O+O+@f",
"ffOO+O+++++++++++++++++++++++++++++++++++++++++++@+OOOOuddddddd9oo6dddddddp#OO+++++++++O++++++++++++++++++++++++++++++++++O++o&f",
"ff+OO+O++++++++++++++++++++++++++++++++++++++++++++O@OOyddddddd9oX6dddddddp%O+O++++++++@+++++++++++++++++++++++++++++++++++O++ff",
"ff+O++O++++++++++++++++++++++++++++++++++++++++++++O+OOudddddsd9oX6dddddddp#o++O+++++++++++++++++++++++++++++++++++++++++++OO@ff",
"ff%O+O+++++++++++++++++++++++++++++++++++++++++++++O+OOydddddsd9oo6ddddddda#OO+O+++++++++++++++++++++++++++++++++++++++++++++@ff",
"fffOO+O++++++++++++++++++++++++++++++++++++++++++++O@OOuddddddd9oo6dddddddp#O++O+++++++++++++++++++++++++++++++++++++++++O++o&ff",
"fff@+OO@++++++++++++++++++++++++++++++++++++++++++++OOOuddddddd9oo6ddddddda#o++O++++++++++++++++++++++++++++++++++++++++++O++fff",
"fff@+O@O+++++++++++++++++++++++++++++++++++++++++++O+OOyddddddd9oo6dsdddddp#O++O+++++++++++++++++++++++++++++++++++++++++++o@fff",
"ffffOOOO+++++++++++++++++++++++++++++++++++++++++++OOOOuddddddd9oX6ddddddda#O++O++++++++++++++++++++++++++++++++++++++++OOOO#fff",
"ffff@O@O+++++++++++++++++++++++++++++++++++++++++++O@OOuddddddd9oX6dddddddp#o+++++++++++++++++++++++++++++++++++++++++++@OOOffff",
"ffff#+OO++++++++++++++++++++++++++++++++++++++++++O+OOOydddddsd9oo6ddddddda#O++O++++++++++++++++++++++++++++++++++++++++OOO@ffff",
"fffffOOOO+++++++++++++++++++++++++++++++++++++++O@+O+OOuddddddd9oo6dsdddddp@O++O++++++++++++++++++++++++++++++++++++++++@O+&ffff",
"fffff+O+++++++++++++++++++++++++@OO@+++++++++++++++O@OOuddddddd9oo6dddddddi#OO+O++++++++++++++++++++++++++++++++++++++O+OO@fffff",
"fffff#O++O++++++++++++++++++++++O@OO++++++++++++++OO+OOyddddddd9oo6dddddddp#O++O+++++++++++++++++++++++++++++++++++++++OOO#fffff",
"ffffff++++++++++++++++++++++++++O@OO+++++++++++++++++OOuddddddd9oo6dddddddp#o++O++++++++++++++++++++++++++++++++++++++O+OOffffff",
"ffffff#OO+O+++++++++++++++++++++@OOO+++++++++++++++O+OOydddddsd9oX5dddddddp#O++O++++++++++++O++++++++++++++++++++++++O++O#ffffff",
"fffffff+O+++++++++++++++++++++++OO+++++++++++++++++OOOOuddddddd9oo5dddddddp%O+++++++++++++++++++++++++++++++++++++++++OOOfffffff",
"fffffff%oO+O++++++++++++++++++++@O+++++++++++++++++O@OOuddddddd9oX6dddddddp#o++O++++++++++++++++++++++++++++++++++++O++O@fffffff",
"ffffffff@OO++++++++++++++++++++++++++++++++++++++++OOOOydddddsd9oo6dddddddrO+++O++++++++++++++++++++++++++++++++++++++++ffffffff",
"ffffffff#OO++++++++++++++++++++++++++++++++++++++++O@OOuddddddd9oo6ddddsd9+O+++++++++++++++++++++++++++++++++++++++OOOO#ffffffff",
"fffffffff@+++O+++++++++++++++++++++++++++++++++++++++OOyddddddd9oo6dddds2Xo+++++++++++++++++++++++++++++++++++++++++OO+fffffffff",
"ffffffffff+OO+O++++++++++++++++++++++++++++++++++++O+O+ydddddsd9oX6dsdi;.+@O+++++++++++++++++++++++++++++++++++++++OOOffffffffff",
"ffffffffff@+O++++++++++++++++++++++++++++++++++++++O+OOyddddddd9Xo5dde#o@++O++++++O+++++++++++++++++++++++++++++++++O@ffffffffff",
"fffffffffff@O++++++++++++++++++++++++++++++++++++++++++yddddddd9oX6d5Xo@O+++++++++@O+++++++++++++++++++++++++++++++o@fffffffffff",
"ffffffffffff+++++++++++++++++++++++++++++++++++++++O++Oyddddddd9oX21.O+O+O++++++++++++++++++++++++++++++++++++++++OO#fffffffffff",
"ffffffffffff#o+++++++++++++++++++++++++++++++++++++O+OOyddddddd9X#+o++O+O++++++++++++++++++++++++++++++++++++++O+OO@ffffffffffff",
"fffffffffffff+O+OO+++++++++++++++++++++++++++++++++O+OOyddddddd9X+++++O+++++++++++++++++++++++++++++++++++++++O+OO+fffffffffffff",
"ffffffffffffff++++O+++++++++++++++++++++++++++++++++++Ouddddddd,o++++O++++++++++++++++++++++O++++++++++++++++O++OOffffffffffffff",
"fffffffffffffff++++O+++++++++++++++++++++++++++++++O+OOudddddu;X++++O+++++++++++++++++++++++++++++++++++++++o@+++#ffffffffffffff",
"fffffffffffffff%OOOO+++++++++++++++++++++++++++++++++OOyddsdq@o+++O++++++++++++++++++++++++++++++++++++++++O+++O#fffffffffffffff",
"ffffffffffffffff@OOO+O+++++++++++++++++++++++++++++OOOOuddd4oO+O+O+++++++++++++++++++++++++++++++++++++++++++++#ffffffffffffffff",
"fffffffffffffffff@O+++O++++++++++++++++++++++++++++O@+Oydi:XO+O++++++++++++++++++++++++++++++++++++++++++O+O+O@fffffffffffffffff",
"ffffffffffffffffff#++O+O+++++++++++++++++++++++++++O++Ouy#X@++++++++++++++++++++++++++++++++++++++++++++O++++@ffffffffffffffffff",
"fffffffffffffffffff@O+O+O++++++++++++++++++++++++++O+O@2+o+O+O+++++++++++++++++++++++++++++++++++++++++O+O+o#fffffffffffffffffff",
"ffffffffffffffffffff#OO+OO++++++++++++++++++++++++++O+Oo++++O+++++++++++++++++++++++++++++++++++++++++O+++O#ffffffffffffffffffff",
"fffffffffffffffffffff@OO++OO++++++++++++++++++++++++O+O+++++++++++++++++++++++++++++++++++++++++++++++++Oo#fffffffffffffffffffff",
"ffffffffffffffffffffff#+++O+++++++++++++++++++++++++++OO+O+++++++++++++++++++++++++++++++++++++++++O++++O#ffffffffffffffffffffff",
"ffffffffffffffffffffffffOO+OOO++++++++++++++++++++++++++O+++++++++++++++++++++++++++++++++++++++++O+O+++%fffffffffffffffffffffff",
"fffffffffffffffffffffffff+OO++++++++++++++++++++++++++++++++++++++++++++++++++++++++++++++++++++OO+OOO+fffffffffffffffffffffffff",
"ffffffffffffffffffffffffff#OO+O+O++++++++++++++++++++++++++++++++++++++++++++++++++++++++++++++O++OOO@ffffffffffffffffffffffffff",
"ffffffffffffffffffffffffffff+OO+++O++++++++++++++++++++++++++++++++++++++++++++++++++++++++++O+++OOO%fffffffffffffffffffffffffff",
"fffffffffffffffffffffffffffff@OOOO++OO+++++++++++++++++++++++++++++++++++++++++++++++++++++O+OO+OO@fffffffffffffffffffffffffffff",
"fffffffffffffffffffffffffffffff+OO++++++++++++++++++++++++++++++++++++++O+++++++++++++++++O++OOO+fffffffffffffffffffffffffffffff",
"ffffffffffffffffffffffffffffffff#OOO++++OO++++++++++++++++++++++++++++++++++++++++++++OO+O++OOO#ffffffffffffffffffffffffffffffff",
"ffffffffffffffffffffffffffffffffff#OOO++O++OOO++++++++++++++++++++++++++++++++++++++O++++OOO+#ffffffffffffffffffffffffffffffffff",
"ffffffffffffffffffffffffffffffffffff#+O+O+OO++O+OO++++++++++++++++++++++++++++OO+OO++OO+OOO#ffffffffffffffffffffffffffffffffffff",
"ffffffffffffffffffffffffffffffffffffff#+OOO+++++++OOOOO+++++++++++++++++++OOOO++O++++OO++#ffffffffffffffffffffffffffffffffffffff",
"fffffffffffffffffffffffffffffffffffffffff@OOOO++++O+++++OOOO+OOOOO+OOO+OO++++O++++OOOO+%ffffffffffffffffffffffffffffffffffffffff",
"fffffffffffffffffffffffffffffffffffffffffff%@+OOOO++++OO++++++++++++++++OO+++OOOOOO@#fffffffffffffffffffffffffffffffffffffffffff",
"ffffffffffffffffffffffffffffffffffffffffffffff%#++O+OOOOOO+++++++++++OOOOOOOOOO+@&ffffffffffffffffffffffffffffffffffffffffffffff",
"ffffffffffffffffffffffffffffffffffffffffffffffffff&@@@O+OOOOOOOOO+OOOOO+OO+#@&ffffffffffffffffffffffffffffffffffffffffffffffffff",
"ffffffffffffffffffffffffffffffffffffffffffffffffffffffff$#$%#+@@@@@@%#%#ffffffffffffffffffffffffffffffffffffffffffffffffffffffff"
};
