/* XPM */
static char *_afba0a46e6a4c2685864e4c64e2b6b2[] = {
/* columns rows colors chars-per-pixel */
"32 32 108 2 ",
"   c #528CC0",
".  c #568FC2",
"X  c #5991C3",
"o  c #5A91C3",
"O  c #5B92C3",
"+  c #5B92C4",
"@  c #5C92C4",
"#  c #5C93C4",
"$  c #5D93C4",
"%  c #5E94C4",
"&  c #5E94C5",
"*  c #5F94C5",
"=  c #5F95C5",
"-  c #6095C5",
";  c #6196C5",
":  c #6196C6",
">  c #6296C6",
",  c #6297C6",
"<  c #6397C6",
"1  c #6397C7",
"2  c #6497C6",
"3  c #6398C7",
"4  c #6498C6",
"5  c #6498C7",
"6  c #6598C7",
"7  c #6599C7",
"8  c #6699C7",
"9  c #679AC8",
"0  c #689BC8",
"q  c #6A9CC9",
"w  c #6C9DC9",
"e  c #6D9ECA",
"r  c #71A1CB",
"t  c #73A1CC",
"y  c #74A3CD",
"u  c #76A4CD",
"i  c #79A6CE",
"p  c #7CA8CF",
"a  c #7DA8CF",
"s  c #7EA9D0",
"d  c #80AAD1",
"f  c #84ADD2",
"g  c #85ADD2",
"h  c #86AED3",
"j  c #88B0D4",
"k  c #89B0D4",
"l  c #8AB1D4",
"z  c #8BB2D5",
"x  c #8DB3D5",
"c  c #8FB4D6",
"v  c #8FB5D6",
"b  c #90B5D6",
"n  c #90B5D7",
"m  c #91B6D7",
"M  c #93B7D7",
"N  c #94B8D8",
"B  c #95B8D8",
"V  c #96B9D9",
"C  c #97BAD9",
"Z  c #98BAD9",
"A  c #99BBDA",
"S  c #9ABCDA",
"D  c #9BBCDA",
"F  c #9DBEDB",
"G  c #9EBEDB",
"H  c #9FBFDC",
"J  c #A2C1DD",
"K  c #A3C1DD",
"L  c #A5C3DE",
"P  c #ABC7E0",
"I  c #ADC8E1",
"U  c #B7CFE5",
"Y  c #BCD2E6",
"T  c #C2D6E9",
"R  c #C3D7E9",
"E  c #C6D9EA",
"W  c #D0E0EE",
"Q  c #D1E0EE",
"!  c #D2E1EE",
"~  c #D3E1EF",
"^  c #D3E2EF",
"/  c #D4E2EF",
"(  c #D5E3EF",
")  c #D6E3F0",
"_  c #D7E4F0",
"`  c #DAE6F1",
"'  c #DBE6F1",
"]  c #DCE8F2",
"[  c #DDE8F2",
"{  c #DEE9F3",
"}  c #DFE9F3",
"|  c #E0EAF3",
" . c #E3ECF4",
".. c #E3ECF5",
"X. c #E4EDF5",
"o. c #E5EDF5",
"O. c #E8F0F6",
"+. c #E9F0F7",
"@. c #EAF1F7",
"#. c #F4F7FA",
"$. c #F8FAFC",
"%. c #F9FBFC",
"&. c #FAFBFD",
"*. c #FCFDFE",
"=. c #FDFEFE",
"-. c #FEFEFE",
";. c gray100",
":. c None",
/* pixels */
":.:.:.:.:.:.:.:.:.:.:.:.6 6 6 6 6 4 6 6 :.:.:.:.:.:.:.:.:.:.:.:.",
":.:.:.:.:.:.:.:.:.6 6 4 4 4 4 6 4 4 4 4 4 6 9 :.:.:.:.:.:.:.:.:.",
":.:.:.:.:.:.:.:.6 4 6 6 6 6 6 6 9 6 6 6 6 6 6 6 q :.:.:.:.:.:.:.",
":.:.:.:.:.:.6 * 6 - o $ O O # O O O O O o o $ o O o :.:.:.:.:.:.",
":.:.:.:.:.6 6 a $ u b x b x x x x x x b x b b b b x 0 :.:.:.:.:.",
":.:.:.:.6 $ z L - o.;.;.;.;.;.;.;.;.;.;.;.;.-.;.;.+.j * :.:.:.:.",
":.:.:.6 * t A d U ;.;.;.;.;.;.;.;.;.;.;.;.;.;.;.X...B o q :.:.:.",
":.:.:.4 6 b x A $.$.$.$.$.$.$.$.$.%.$.$.$.$.$.#.` ` 4 4 4 6 :.:.",
":.:.6 ; y J s I ] W W ( ( ( ) ) ( ) ( ) ( W _ R +.d o 9 ; 9 :.:.",
":.6 6 * i I . W ;.;.;.;.;.;.;.;.;.;.;.;.;.;.;.+.F o 9 ; 1 ; 9 :.",
":.3 4 4 9 9 * h Z B B B b P ;.+.Y ;.| m B B B z ; 3 9 9 9 ; ; :.",
":.4 ; 4 ; 4 3 $ o o o $   a ;.] B ;.W   o o o $ 4 4 ; 1 ; 1 6 :.",
"9 ; 1 ; 9 1 ; 9 9 6 9 9 * f ;.] H ;.W ; 9 9 6 6 1 ; 1 1 9 9 ; 9 ",
"9 4 1 9 9 3 1 1 3 4 4 6 # f ;.{ H ;.~ $ 5 5 1 6 9 9 3 9 1 3 ; 1 ",
"9 9 1 ; ; 1 3 9 9 1 1 6 # f ;.{ F ;.~ $ 5 5 ; 9 ; 9 9 ; 6 1 1 6 ",
"; ; 1 9 9 1 9 ; ; 9 3 9 # f ;.] F ;.~ o 5 1 9 3 1 1 3 4 6 9 ; 6 ",
"9 5 9 3 ; 9 1 9 3 3 4 9 $ f ;.{ F ;.W $ 5 5 5 5 5 5 5 5 5 5 1 5 ",
"9 ; ; 1 9 3 1 ; 9 3 3 4 $ f ;.{ H ;.( $ 5 5 5 5 5 5 5 5 5 5 1 8 ",
"; ; 9 1 1 1 3 9 4 3 3 9 o f ;.] F ;.W $ 5 5 5 5 5 5 5 5 9 1 1 1 ",
"9 5 1 ; 9 3 1 1 3 3 4 6 * f ;.{ F ;.~ $ 5 5 5 5 5 5 5 5 1 1 1 9 ",
":.; 1 ; 1 1 3 9 9 1 1 9 * f ;.{ F ;.) o 9 ; 5 5 3 4 4 6 1 1 4 :.",
":.9 ; 9 9 1 9 ; ; 9 3 4 o f ;.] F ;.W $ 5 9 5 5 3 9 3 6 1 2 6 :.",
":.9 1 9 ; 9 1 1 9 3 3 9 $ f ;.| F ;.( $ 5 5 5 5 3 9 6 ; 6 1 9 :.",
":.:.5 ; ; 9 3 9 ; 3 4 6 $ f ;.] F ;.R o 9 ; 5 5 9 ; 6 6 ; 6 :.:.",
":.:.6 6 4 ; 9 ; 1 1 3 9 o f ;.] J E 1 ; 9 ; 3 1 1 1 ; 9 ; 9 :.:.",
":.:.:.6 ; 9 ; 9 9 ; 9 4 o f ;...e * ; 1 ; ; 9 1 9 ; 1 ; 9 :.:.:.",
":.:.:.:.5 ; 1 ; 1 9 1 9 o z +.s $ 9 9 ; 9 1 1 9 ; 1 ; 9 :.:.:.:.",
":.:.:.:.:.9 ; 9 9 ; 3 1 4 t q O 9 1 ; 1 9 1 ; 9 9 ; 9 :.:.:.:.:.",
":.:.:.:.:.:.9 ; ; 9 ; ; 6 ; ; 6 ; 9 1 1 4 4 3 ; ; 9 :.:.:.:.:.:.",
":.:.:.:.:.:.:.9 6 4 4 9 4 6 6 1 9 ; 9 3 6 ; ; 9 9 :.:.:.:.:.:.:.",
":.:.:.:.:.:.:.:.:.6 4 6 ; 4 1 1 1 1 ; ; 6 6 6 :.:.:.:.:.:.:.:.:.",
":.:.:.:.:.:.:.:.:.:.:.:.6 6 6 6 1 5 5 9 :.:.:.:.:.:.:.:.:.:.:.:."
};
