/* XPM */
static char *_32df1f1a01f481e857f1db4a619f960[] = {
/* columns rows colors chars-per-pixel */
"16 16 176 2 ",
"   c #6B0000",
".  c #6D0000",
"X  c #6D0300",
"o  c #6B0400",
"O  c #750000",
"+  c #740101",
"@  c #730505",
"#  c #6B6800",
"$  c #6B6B00",
"%  c #6D6A00",
"&  c #6D6D00",
"*  c #757500",
"=  c #747402",
"-  c #747405",
";  c #7A7472",
":  c #7B7079",
">  c #810101",
",  c #A30101",
"<  c #A40000",
"1  c #A70000",
"2  c #A70202",
"3  c #B90000",
"4  c #BC0000",
"5  c #A43838",
"6  c #C00000",
"7  c #CA0000",
"8  c #CC0000",
"9  c #DB0505",
"0  c #CB1111",
"q  c #ED0000",
"w  c #EF0500",
"e  c #EA0404",
"r  c #EA0F0F",
"t  c #F00000",
"y  c #F40000",
"u  c #F90000",
"i  c #FA0000",
"p  c #FA0202",
"a  c #FB0303",
"s  c #FD0000",
"d  c #FE0000",
"f  c red",
"g  c #FF0101",
"h  c #FF0202",
"j  c #FE0303",
"k  c #FF0303",
"l  c #FF0304",
"z  c #F00909",
"x  c #F70C0C",
"c  c #E21919",
"v  c #E91919",
"b  c #EE1818",
"n  c #F91314",
"m  c #DE2929",
"M  c #EC2424",
"N  c #F32121",
"B  c #E4332F",
"V  c #E02538",
"C  c #814101",
"Z  c #824101",
"A  c #FF7600",
"S  c #AF7342",
"D  c #D85050",
"F  c #E04949",
"G  c #E35E5E",
"H  c #DC6767",
"J  c #DE6666",
"K  c #D46C69",
"L  c #E26D6D",
"P  c #828202",
"I  c #A3A300",
"U  c #A4A400",
"Y  c #A7A700",
"T  c #B9B900",
"R  c #BBBB00",
"E  c #BFBF00",
"W  c #8D8D36",
"Q  c #94943B",
"!  c #A4A43A",
"~  c #EA8A0C",
"^  c #FF8802",
"/  c #E3802A",
"(  c #EE9E31",
")  c #C2BF3A",
"_  c #C8C700",
"`  c #C9C900",
"'  c #CBCB00",
"]  c #CCCB00",
"[  c #CDC817",
"{  c #E6E600",
"}  c #E5E505",
"|  c #EEEE00",
" . c #ECEC06",
".. c #E7E70F",
"X. c #F0EF02",
"o. c #EEF600",
"O. c #F1F103",
"+. c #F7F500",
"@. c #F7F700",
"#. c #F3FC00",
"$. c #F8F800",
"%. c #F9F900",
"&. c #FAFA00",
"*. c #FAFA01",
"=. c #F9F902",
"-. c #FCFC00",
";. c #FDFD00",
":. c #FCFC01",
">. c #FEFE00",
",. c #FEFF00",
"<. c yellow",
"1. c #FFFF01",
"2. c #FDFD02",
"3. c #FEFD02",
"4. c #FFFF02",
"5. c #FFFF04",
"6. c #F6F60A",
"7. c #EDED17",
"8. c #EBF71A",
"9. c #C4C43B",
"0. c #E2E122",
"q. c #E0E22B",
"w. c #E6E632",
"e. c #EEEE39",
"r. c #8F9070",
"t. c #CACA44",
"y. c #D7D743",
"u. c #DDDD55",
"i. c #E4E44C",
"p. c #DBDB63",
"a. c #C5C574",
"s. c #7E8A89",
"d. c #A09A9A",
"f. c #A6A682",
"g. c #AAAA93",
"h. c #95A3A3",
"j. c #B2AFB8",
"k. c #D68E8D",
"l. c #DD8C8C",
"z. c #CDAFAD",
"x. c #D1ABAB",
"c. c #DBAAAA",
"v. c #C1BFBA",
"b. c #DAB2B2",
"n. c #E4B7B7",
"m. c #CDCD80",
"M. c #DFDF81",
"N. c #DBDB98",
"B. c #E3E382",
"V. c #CFCAA5",
"C. c #D0CFBC",
"Z. c #BAC6C4",
"A. c #DAC4C4",
"S. c #DBDBC8",
"D. c #D3CDD0",
"F. c #D5D5D3",
"G. c #DFDBDB",
"H. c #E3D2D2",
"J. c #E1DCDC",
"K. c #E7E7CA",
"L. c #E5E5D2",
"P. c #E1CFEF",
"I. c #E0E5E5",
"U. c #E8E6E5",
"Y. c #E7E7E9",
"T. c #EDE3ED",
"R. c #E8E8EE",
"E. c #EFEFED",
"W. c #F1EEEF",
"Q. c #E2FFE6",
"!. c #E8FFFF",
"~. c #E9FFFF",
"^. c #F4F4F7",
"/. c #F4F4FF",
"(. c #F9F3F9",
"). c None",
/* pixels */
").).).).).O 2 6 4 1 O ).).).).).",
").).).o 8 p d M x d p 8   ).).).",
").).C w l d m !.H d d d t > ).).",
").% o.^ d B U.I.n.y l a d q   ).",
")._ q.8./ P.k.b.W.e d d v b 8 ).",
"= %.0.V.Q.( t A.G.z 9 D x.c p O ",
"U <.<.6.) [ S : ; 5 0 c.G d d 2 ",
"T <.%.5.{ r.s.v.d.h.N L l.p l 3 ",
"T <.:.%.y.C.j.Y.D.Z.K H H.t d 3 ",
"I <.+.p./.^.m.f.g.E.(.z.J.r d , ",
"- +.u./.F.t.<.W Q i.K.T.!.F p @ ",
").' e.N.L.R.B.9.! +.#.~ V n 8 ).",
").& | <. .w.M.S.} <.<.<.A q   ).",
").).P O.<.<.<.a.7.<.<.<.X.C ).).",
").).).$ ' %.5...%.<.%.] % ).).).",
").).).).).= U _ R U = ).).).).)."
};
