/* XPM */
static char *ff271f29d33b41e3d7c61df683920dfe[] = {
/* columns rows colors chars-per-pixel */
"32 32 165 2 ",
"   c #040200",
".  c #0A0000",
"X  c #0A0A00",
"o  c #150000",
"O  c #190000",
"+  c #151500",
"@  c #191900",
"#  c #310000",
"$  c #313100",
"%  c #420000",
"&  c #4A0000",
"*  c #5B0000",
"=  c #650000",
"-  c #6B0000",
";  c #414100",
":  c #4A4A00",
">  c #4A5600",
",  c #5B5B00",
"<  c #656500",
"1  c #6A6A00",
"2  c #6A5353",
"3  c #5B5B67",
"4  c #6D666A",
"5  c #706F6F",
"6  c #707174",
"7  c #7C7974",
"8  c #7C7C6A",
"9  c #8E1414",
"0  c #AB0000",
"q  c #BB0000",
"w  c #AE1111",
"e  c #A62431",
"r  c #C70707",
"t  c #D20000",
"y  c #DB0000",
"u  c #DC0808",
"i  c #CA1313",
"p  c #D00F18",
"a  c #E30000",
"s  c #EB0000",
"d  c #F40000",
"f  c #FE0101",
"g  c #FF0008",
"h  c #E91414",
"j  c #C92323",
"k  c #C63535",
"l  c #D87F04",
"z  c #F27C00",
"x  c #FD7E01",
"c  c #FE7700",
"v  c #C3413E",
"b  c #975050",
"n  c #8B5555",
"m  c #AB5F5F",
"M  c #BD5454",
"N  c #B24545",
"B  c #837B7A",
"V  c #947272",
"C  c #BB7777",
"Z  c #BD6464",
"A  c #C67C7C",
"S  c #C16B6B",
"D  c #99990E",
"F  c #ABAB00",
"G  c #BBBB00",
"H  c #959520",
"J  c #8E9A3F",
"K  c #ADAD2E",
"L  c #BBBB27",
"P  c #AAAA38",
"I  c #BCBC3D",
"U  c #FE8402",
"Y  c #C4C405",
"T  c #CDCD0C",
"R  c #CCCC03",
"E  c #D2D202",
"W  c #DBDC01",
"Q  c #DADA08",
"!  c #D3D309",
"~  c #CACA14",
"^  c #D3D315",
"/  c #E4E301",
"(  c #EAEA01",
")  c #E8E700",
"_  c #E9F200",
"`  c #F3F300",
"'  c #FEFE00",
"]  c #FBF700",
"[  c #C6C625",
"{  c #C4C439",
"}  c #D2D225",
"|  c #949351",
" . c #B8B84E",
".. c #B1B14D",
"X. c #888868",
"o. c #9F9F6C",
"O. c #87877F",
"+. c #AEAE68",
"@. c #BDBE62",
"#. c #B3B378",
"$. c #C7C748",
"%. c #C3C357",
"&. c #C2C26C",
"*. c #797988",
"=. c #7F8181",
"-. c #868180",
";. c #948C8C",
":. c #95958B",
">. c #8E8E94",
",. c #9A9292",
"<. c #969690",
"1. c #8B999B",
"2. c #AF8787",
"3. c #BD8987",
"4. c #BE9A9A",
"5. c #BE9292",
"6. c #BEA186",
"7. c #BCBC8B",
"8. c #AAAA9A",
"9. c #ACA7A6",
"0. c #B2ACAD",
"q. c #B3B3AC",
"w. c #B7B5B4",
"e. c #C48E8E",
"r. c #C49999",
"t. c #D19E9E",
"y. c #C3B29A",
"u. c #C8ACAC",
"i. c #CDBEBE",
"p. c #C3C395",
"a. c #CDCCAA",
"s. c #C9C9A5",
"d. c #C4C4B9",
"f. c #D1D1BA",
"g. c #BFBFC1",
"h. c #BEC6C6",
"j. c #CBCBC3",
"k. c #CAC6C6",
"l. c #D1C3C3",
"z. c #D5CCCC",
"x. c #DACACA",
"c. c #CDCDD3",
"v. c #CDD2D2",
"b. c #D6D3D1",
"n. c #DDDBDB",
"m. c #DBD6D6",
"M. c #D9CFD9",
"N. c #E3DDDD",
"B. c #D9D9E8",
"V. c #D9D9FF",
"C. c #DFE7E7",
"Z. c #E6E4E2",
"A. c #EDECEA",
"S. c #E5E9E8",
"D. c #E4E4F2",
"F. c #ECECFC",
"G. c #EAF6F6",
"H. c #E3FBFB",
"J. c #F5F3F3",
"K. c #F5F5FE",
"L. c #F3FEFE",
"P. c #FEFEFE",
"I. c #F8F8F7",
"U. c #F2EAEA",
"Y. c None",
/* pixels */
"Y.Y.Y.Y.Y.Y.Y.Y.Y.Y.Y.Y.O % * - - * % O Y.Y.Y.Y.Y.Y.Y.Y.Y.Y.Y.Y.",
"Y.Y.Y.Y.Y.Y.Y.Y.Y.o = 0 y f f f f f d y 0 = O Y.Y.Y.Y.Y.Y.Y.Y.Y.",
"Y.Y.Y.Y.Y.Y.Y.. - y f f f f f d f f f f f f y - . Y.Y.Y.Y.Y.Y.Y.",
"Y.Y.Y.Y.Y.Y.# q f f f f f f j C p f f f f f f f q # Y.Y.Y.Y.Y.Y.",
"Y.Y.Y.Y.Y.& s f f f f f f t i.P.e.s f f f f f f f a & Y.Y.Y.Y.Y.",
"Y.Y.Y.Y.> z f f f f f f y 4.P.P.S.i f f f f f f f f d & Y.Y.Y.Y.",
"Y.Y.Y.$ / ' x f f f f y 4.P.Z.n.P.M f f f f f f f f f a # Y.Y.Y.",
"Y.Y.  G ' ] ' x f f y 4.P.P.,.m.P.r.d f f f f f f f f f q   Y.Y.",
"Y.Y.1 ' ) ` ' ' U y 3.P.P.l.b P.P.l.a f f f f f f f f f f - Y.Y.",
"Y.+ E ' L #.^ W E 6.P.S.C t A P.P.n.y f f f f f s j N u f t O Y.",
"Y.< ' ' ` 7.V.n.n.L.y.i f s u.P.P.n.y f f s d y e.H.m s f f = Y.",
"Y.F ' ' ' ( [ f.P.s.W x g s 2.v.m.k.y f h 9 M l.L.M d f f f 0 Y.",
"@ W ' ' ' ' ' Q +.[ ' ' z e B B B 6 w d V r A P.e.a f f f f y O ",
"; ] ' ' ' ' ' ' R ..| | J 1.B 7 ;.=.2 n k f i H.e.d f f f f f % ",
", ' ' ' ' ' ' ' ' ~ X.>.5 7 O.0.O.4 6 9.h f y n.m.y f f f f f * ",
"< ' ' ' ' ' ' ' ' / D 0.:.B S.I.U.9.B S.t.f a z.L.j f f f f f = ",
"< ' ' ' ' ' ' ' ] ! 7.c.q.<.d.n.k.w.,.l.v.h a z.P.Z f f f f f - ",
", ' ' ' ' ' ' ` I c.g.f.j.:.I.S.I.w.,.m.h.k y z.P.r.s f f f f * ",
"; ] ' ' ' ' ]  .F.P.S.P.P.O.9.b.k.>.Z.P.J.C.N 2.P.z.y f f f d % ",
"@ W ' ' ' '  .F.P.P.P.D.#./ H *.X.o.P.P.P.P.K.;.Z.G.i f f f y O ",
"Y.F ' ' ' I D.P.A.d.@.^ ` ' ~ 3 X./ %.B.P.P.P.J.U.P.S f f f 0 Y.",
"Y.< ' ' ! B.P.A.q.8. ./ ' ' T 3 6 [ ` T @.a.M.G.L.P.u.s f f = Y.",
"Y.@ ! ' W d.F.I.P.P.P.j.L ( ' D 8 P Y ' ] _ l p v 3.k f f t O Y.",
"Y.Y.1 ' ' W ~  .p.n.K.P.K.s.&.$.P [ ' ' ' ' ' c f d f f f - Y.Y.",
"Y.Y.  G ' ' ' ' _ ! $.@.a.S.P.f.R Q ' ' ' ' ] ' U f f f q   Y.Y.",
"Y.Y.Y.$ / ' ] ' ' ' ' ] ( Y n.a.( ' ' ' ' ' ' ' ' c f a # Y.Y.Y.",
"Y.Y.Y.Y.: ` ' ' ' ' ' ' ' ' &.B.E ' ' ' ' ' ' ' ] ' z & Y.Y.Y.Y.",
"Y.Y.Y.Y.Y.: ( ' ' ' ' ' ' ' } q.( ' ' ' ' ' ' ] ' ( > Y.Y.Y.Y.Y.",
"Y.Y.Y.Y.Y.Y.$ G ' ' ' ] ' ' ^ K ' ' ' ' ' ' ' ' G $ Y.Y.Y.Y.Y.Y.",
"Y.Y.Y.Y.Y.Y.Y.X 1 W ' ' ' ' ] ] ' ' ' ' ' ' W 1 X Y.Y.Y.Y.Y.Y.Y.",
"Y.Y.Y.Y.Y.Y.Y.Y.Y.+ < F W ] ' ' ' ' ] W F < + Y.Y.Y.Y.Y.Y.Y.Y.Y.",
"Y.Y.Y.Y.Y.Y.Y.Y.Y.Y.Y.Y.@ ; , 1 < , ; @ Y.Y.Y.Y.Y.Y.Y.Y.Y.Y.Y.Y."
};
