/* XPM */
static char *c36b67dc4ef04b8cca91d59ddb9d8522[] = {
/* columns rows colors chars-per-pixel */
"16 16 77 1 ",
"  c #508ABF",
". c #558EC1",
"X c #578FC2",
"o c #5890C2",
"O c #5991C3",
"+ c #5A91C3",
"@ c #5C92C4",
"# c #5D93C4",
"$ c #5E94C4",
"% c #5E94C5",
"& c #5F95C5",
"* c #6095C5",
"= c #6196C5",
"- c #6196C6",
"; c #6296C6",
": c #6397C6",
"> c #6398C7",
", c #6498C6",
"< c #6498C7",
"1 c #6598C7",
"2 c #6599C7",
"3 c #6699C7",
"4 c #679AC8",
"5 c #689AC8",
"6 c #699BC8",
"7 c #6E9ECA",
"8 c #72A1CC",
"9 c #75A3CD",
"0 c #76A3CD",
"q c #76A4CD",
"w c #79A5CE",
"e c #7AA7CF",
"r c #7DA9D0",
"t c #7EA9D0",
"y c #80AAD1",
"u c #80ABD1",
"i c #85AED3",
"p c #8FB4D6",
"a c #8FB5D6",
"s c #90B5D6",
"d c #94B8D8",
"f c #96B9D8",
"g c #98BBDA",
"h c #9FBFDC",
"j c #A0C0DC",
"k c #A2C1DD",
"l c #A4C2DE",
"z c #A5C3DE",
"x c #B6CFE4",
"c c #B7CFE5",
"v c #C8DAEA",
"b c #C9DAEB",
"n c #C9DBEB",
"m c #CADCEB",
"M c #CFDFED",
"N c #DCE8F2",
"B c #DDE8F2",
"V c #DEE9F3",
"C c #DFE9F3",
"Z c #E0EAF3",
"A c #E1EBF4",
"S c #E2EBF4",
"D c #E2ECF4",
"F c #E5EDF5",
"G c #E5EEF5",
"H c #E8EFF6",
"J c #EAF1F7",
"K c #EBF1F7",
"L c #EBF2F7",
"P c #ECF2F8",
"I c #EDF3F8",
"U c #EFF4F9",
"Y c #F6F9FB",
"T c #FDFEFE",
"R c #FEFEFE",
"E c gray100",
"W c None",
/* pixels */
"WWWWW633636WWWWW",
"WWW-&OOO++OOXWWW",
"WW-qpMbbnbbncqWW",
"W-8fFEEEEEEEU8&W",
"W-ykYJPJLLLJd@1W",
"1117itgHFxwy->,1",
"1,,-#XwZBk ->1-1",
">-,,3&yDBzO111-1",
"3->1,&yZBzo3>>-3",
"3-11,&tDBzo33>-3",
"1-3>1#tZBzo3>3-3",
"W3-1,&tZBjo33-3W",
"W3-31&tJp6-3>-3W",
"WW3-1&9p+-3--3WW",
"WWW31>-#3>-33WWW",
"WWWWW1131>3WWWWW"
};
